<?xml version="1.0" standalone="no"?>
<!DOCTYPE svg PUBLIC "-//W3C//DTD SVG 20010904//EN"
 "http://www.w3.org/TR/2001/REC-SVG-20010904/DTD/svg10.dtd">
<svg version="1.0" xmlns="http://www.w3.org/2000/svg"
 width="920.000000pt" height="512.000000pt" viewBox="0 0 920.000000 512.000000"
 preserveAspectRatio="xMidYMid meet">

<g transform="translate(0.000000,512.000000) scale(0.100000,-0.100000)"
fill="#000000" stroke="none">
<path d="M4284 4576 c-80 -35 -120 -118 -128 -268 -4 -62 -2 -109 3 -112 5 -4
1 -28 -10 -59 -35 -96 -48 -190 -59 -442 -14 -306 -21 -365 -52 -385 -88 -60
-166 -188 -204 -336 -23 -91 -54 -303 -54 -368 0 -51 8 -24 14 49 4 39 9 84
11 100 3 17 7 48 10 70 18 130 81 308 130 367 32 38 91 79 101 70 4 -4 4 -2 1
4 -4 7 0 18 9 25 27 22 35 59 39 174 18 491 17 478 34 540 7 22 13 45 14 50
13 47 30 85 39 85 6 0 8 3 5 6 -4 4 3 20 14 36 12 16 23 27 26 24 3 -2 13 3
23 12 11 8 25 17 32 18 7 1 24 4 38 7 42 8 117 -20 140 -53 29 -41 48 -112 54
-205 3 -44 8 -395 12 -780 3 -385 8 -702 10 -704 2 -2 4 181 4 409 l0 412 23
-15 22 -14 1 -372 c0 -204 4 -374 8 -378 4 -4 7 33 6 82 -3 128 10 1206 15
1228 2 10 -1 14 -7 10 -7 -4 -8 -1 -3 7 5 8 10 48 10 90 4 130 27 214 69 249
60 50 172 43 229 -14 20 -20 36 -38 37 -40 0 -3 7 -20 15 -40 8 -19 16 -42 18
-52 1 -10 6 -24 10 -30 5 -7 5 -17 2 -23 -3 -5 -2 -10 2 -10 5 0 9 -10 10 -22
0 -13 4 -66 8 -118 4 -52 9 -133 10 -180 3 -107 15 -295 21 -336 5 -34 35 -69
49 -57 4 5 6 3 2 -2 -6 -12 8 -40 20 -40 33 -2 109 -100 128 -166 3 -13 13
-38 20 -54 8 -17 16 -43 19 -58 3 -15 8 -38 11 -52 3 -14 7 -37 11 -52 3 -16
16 -113 28 -218 13 -104 24 -175 25 -157 1 31 -33 347 -44 407 -35 187 -108
325 -214 405 -42 32 -45 50 -60 365 -14 278 -23 356 -50 442 -16 51 -19 79
-14 146 15 216 -87 360 -234 332 -83 -15 -135 -109 -147 -260 -3 -38 -7 -79
-9 -90 -3 -11 -5 -23 -6 -27 0 -5 -11 -8 -23 -7 -22 0 -22 1 -3 8 16 7 17 9 5
13 -10 3 -9 4 3 3 9 -2 17 1 17 5 0 5 -10 10 -21 12 -18 2 -22 11 -25 48 -9
143 -26 204 -67 249 -45 48 -121 64 -183 37z m120 -30 c80 -33 105 -89 110
-250 2 -66 7 -134 10 -151 6 -28 6 -29 -4 -5 -52 119 -182 165 -283 100 -26
-16 -47 -34 -47 -40 0 -5 -4 -10 -10 -10 -6 0 -10 42 -10 105 0 93 3 112 25
155 46 92 129 130 209 96z m465 -14 c35 -25 69 -77 81 -122 5 -20 9 -80 8
-132 l-1 -96 -23 28 c-50 59 -142 77 -219 41 -46 -21 -64 -39 -94 -96 -14 -27
-19 -32 -16 -15 3 14 7 81 8 150 3 107 6 131 25 168 41 79 82 104 156 97 28
-2 61 -12 75 -23z m-279 -950 l1 -253 -23 3 -23 3 -5 238 c-3 131 -2 245 3
252 4 8 16 13 27 12 18 -1 19 -12 20 -255z"/>
<path d="M4546 3814 c-5 -14 -4 -15 8 -5 10 8 16 9 19 1 3 -6 4 -5 3 2 -4 19
-23 20 -30 2z"/>
<path d="M3774 2522 c-2 -40 -1 -42 6 -17 10 41 11 65 3 65 -5 0 -9 -21 -9
-48z"/>
<path d="M4588 2503 c5 -21 7 -23 10 -9 2 10 0 22 -6 28 -6 6 -7 0 -4 -19z"/>
<path d="M5357 2403 c8 -63 13 -67 13 -10 0 25 -4 49 -10 52 -6 4 -7 -11 -3
-42z"/>
<path d="M3763 2355 c0 -27 2 -38 4 -22 2 15 2 37 0 50 -2 12 -4 0 -4 -28z"/>
<path d="M5367 2290 c3 -11 8 -18 12 -16 15 10 22 -505 8 -614 -5 -36 -10 -76
-12 -90 -9 -79 -18 -122 -37 -185 -12 -38 -24 -72 -27 -75 -3 -3 -8 -14 -9
-25 -2 -11 -9 -23 -15 -27 -7 -4 -8 -8 -4 -8 15 0 -35 -73 -83 -120 -65 -66
-123 -90 -206 -86 -144 6 -287 151 -360 364 -36 102 -41 107 -23 20 41 -201
155 -468 307 -720 l47 -77 843 -1 842 0 0 369 0 368 -77 32 c-249 104 -544
294 -801 518 -143 125 -181 161 -294 275 -64 65 -114 109 -111 98z"/>
<path d="M3640 2183 c-254 -253 -469 -432 -690 -575 -105 -68 -312 -177 -402
-213 l-68 -27 0 -369 0 -369 840 0 840 0 44 68 c59 91 167 298 210 404 49 119
104 294 109 345 5 54 -8 47 -17 -9 -4 -24 -25 -80 -48 -126 -69 -139 -190
-247 -304 -268 -38 -7 -144 13 -144 27 0 6 -4 8 -9 5 -9 -6 -121 91 -121 105
0 5 -11 24 -24 44 -21 30 -51 105 -60 148 -2 7 -6 19 -10 28 -4 9 -8 33 -9 53
-1 20 -5 36 -8 36 -4 0 -10 28 -14 63 -4 34 -10 80 -13 102 -11 72 -3 607 10
622 6 7 9 15 7 17 -2 2 -56 -48 -119 -111z"/>
<path d="M3763 2255 c0 -8 4 -12 9 -9 5 3 6 10 3 15 -9 13 -12 11 -12 -6z"/>
<path d="M5373 2200 c0 -25 2 -35 4 -22 2 12 2 32 0 45 -2 12 -4 2 -4 -23z"/>
<path d="M3753 2195 c0 -22 2 -30 4 -17 2 12 2 30 0 40 -3 9 -5 -1 -4 -23z"/>
<path d="M4561 1923 c0 -17 -4 -40 -7 -50 -5 -15 -4 -15 5 -3 9 12 11 11 11
-8 0 -13 -3 -21 -8 -18 -11 7 -9 -108 3 -116 6 -5 5 -8 -2 -8 -9 0 -13 -20
-13 -65 0 -52 3 -65 15 -65 13 0 15 20 14 138 -1 128 -15 274 -18 195z"/>
</g>
</svg>
