<?xml version="1.0" standalone="no"?>
<!DOCTYPE svg PUBLIC "-//W3C//DTD SVG 20010904//EN"
 "http://www.w3.org/TR/2001/REC-SVG-20010904/DTD/svg10.dtd">
<svg version="1.0" xmlns="http://www.w3.org/2000/svg"
 width="800.000000pt" height="800.000000pt" viewBox="0 0 800.000000 800.000000"
 preserveAspectRatio="xMidYMid meet">

<g transform="translate(0.000000,800.000000) scale(0.100000,-0.100000)"
fill="#000000" stroke="none">
<path d="M2776 5415 c-731 -244 -1337 -452 -1347 -461 -10 -9 -23 -31 -29 -49
-14 -41 7 -97 41 -116 13 -6 160 -58 327 -113 l303 -101 -41 -59 c-107 -152
-176 -367 -196 -606 -6 -67 -11 -86 -28 -99 -107 -82 -153 -168 -143 -271 8
-91 51 -160 139 -225 l27 -20 -15 -90 c-61 -348 -191 -600 -451 -875 -35 -37
-63 -74 -63 -83 0 -39 342 -211 420 -212 57 0 124 32 191 93 103 92 170 207
211 362 21 76 23 107 22 285 -1 141 -8 253 -23 378 l-22 178 39 43 c56 61 76
119 70 208 -6 86 -23 124 -84 182 -27 26 -44 51 -44 66 0 66 36 248 67 343 83
249 200 352 588 512 146 61 653 264 740 297 562 214 634 236 691 218 73 -25
111 -109 78 -177 -25 -50 -69 -78 -173 -110 -149 -45 -388 -135 -876 -331
-170 -68 -355 -142 -410 -164 -55 -22 -101 -41 -103 -43 -2 -2 323 -112 722
-245 l726 -241 1328 442 c730 243 1340 448 1355 456 40 20 61 75 47 118 -6 18
-19 40 -29 49 -21 19 -2675 906 -2706 905 -11 0 -618 -200 -1349 -444z"/>
<path d="M5030 3879 c-749 -250 -842 -279 -900 -279 -58 0 -148 28 -875 270
-446 149 -813 270 -817 270 -16 0 -48 -171 -48 -259 0 -33 6 -43 51 -81 98
-82 150 -201 151 -345 0 -93 -22 -164 -77 -241 l-35 -49 43 -43 c189 -195 659
-352 1212 -407 136 -14 231 -16 475 -12 330 6 463 19 700 67 489 99 828 275
935 486 l30 59 3 423 c2 232 -1 422 -5 421 -4 0 -384 -126 -843 -280z"/>
</g>
</svg>
